FILE "Bakumatsu Roman Gekka no Kenshi Soundtrack (1997)(Pony Canyon)(JP)[CD-Audio].img" BINARY
  TRACK 01 AUDIO
    ISRC JPPC09716808
    INDEX 01 00:00:00
  TRACK 02 AUDIO
    ISRC JPPC09716809
    INDEX 01 01:23:10
  TRACK 03 AUDIO
    ISRC JPPC09716810
    INDEX 01 01:55:30
  TRACK 04 AUDIO
    ISRC JPPC09716811
    INDEX 01 04:19:00
  TRACK 05 AUDIO
    ISRC JPPC09716812
    INDEX 01 04:28:22
  TRACK 06 AUDIO
    ISRC JPPC09716813
    INDEX 01 05:42:02
  TRACK 07 AUDIO
    ISRC JPPC09716814
    INDEX 01 06:55:57
  TRACK 08 AUDIO
    ISRC JPPC09716815
    INDEX 01 08:06:20
  TRACK 09 AUDIO
    ISRC JPPC09716816
    INDEX 01 09:12:12
  TRACK 10 AUDIO
    ISRC JPPC09716817
    INDEX 01 12:23:55
  TRACK 11 AUDIO
    ISRC JPPC09716818
    INDEX 01 12:58:47
  TRACK 12 AUDIO
    ISRC JPPC09716819
    INDEX 01 14:10:30
  TRACK 13 AUDIO
    ISRC JPPC09716820
    INDEX 01 15:06:52
  TRACK 14 AUDIO
    ISRC JPPC09716821
    INDEX 01 16:15:12
  TRACK 15 AUDIO
    ISRC JPPC09716822
    INDEX 01 17:20:07
  TRACK 16 AUDIO
    ISRC JPPC09716823
    INDEX 01 19:29:20
  TRACK 17 AUDIO
    ISRC JPPC09716824
    INDEX 01 20:36:05
  TRACK 18 AUDIO
    ISRC JPPC09716825
    INDEX 01 21:39:25
  TRACK 19 AUDIO
    ISRC JPPC09716826
    INDEX 01 22:48:47
  TRACK 20 AUDIO
    ISRC JPPC09716827
    INDEX 01 25:18:60
  TRACK 21 AUDIO
    ISRC JPPC09716828
    INDEX 01 26:34:10
  TRACK 22 AUDIO
    ISRC JPPC09716829
    INDEX 01 27:44:00
  TRACK 23 AUDIO
    ISRC JPPC09716830
    INDEX 01 27:54:65
  TRACK 24 AUDIO
    ISRC JPPC09716831
    INDEX 01 28:58:37
  TRACK 25 AUDIO
    ISRC JPPC09716832
    INDEX 01 30:01:37
  TRACK 26 AUDIO
    ISRC JPPC09716833
    INDEX 01 30:19:12
  TRACK 27 AUDIO
    ISRC JPPC09716834
    INDEX 01 32:29:62
  TRACK 28 AUDIO
    ISRC JPPC09716835
    INDEX 01 32:46:32
  TRACK 29 AUDIO
    ISRC JPPC09716836
    INDEX 01 33:30:47
  TRACK 30 AUDIO
    ISRC JPPC09716837
    INDEX 01 35:37:17
  TRACK 31 AUDIO
    ISRC JPPC09716838
    INDEX 01 38:02:45
  TRACK 32 AUDIO
    ISRC JPPC09716839
    INDEX 01 39:44:20
  TRACK 33 AUDIO
    ISRC JPPC09716840
    INDEX 01 41:44:42
  TRACK 34 AUDIO
    ISRC JPPC09716841
    INDEX 01 43:20:67
  TRACK 35 AUDIO
    ISRC JPPC09716842
    INDEX 01 43:35:52
  TRACK 36 AUDIO
    INDEX 00 43:39:55
    INDEX 01 43:44:22
  TRACK 37 AUDIO
    INDEX 01 44:56:50
  TRACK 38 AUDIO
    INDEX 01 45:59:42
  TRACK 39 AUDIO
    INDEX 01 46:52:37
  TRACK 40 AUDIO
    INDEX 01 47:50:22
  TRACK 41 AUDIO
    INDEX 01 49:21:05
  TRACK 42 AUDIO
    INDEX 01 50:29:55
  TRACK 43 AUDIO
    INDEX 01 51:37:10
  TRACK 44 AUDIO
    INDEX 01 52:32:57
  TRACK 45 AUDIO
    INDEX 01 54:36:67
  TRACK 46 AUDIO
    INDEX 01 56:08:20
  TRACK 47 AUDIO
    INDEX 01 56:55:67
  TRACK 48 AUDIO
    INDEX 01 57:57:70
  TRACK 49 AUDIO
    INDEX 01 58:58:15
  TRACK 50 AUDIO
    INDEX 01 60:17:70
